<svg xmlns="http://www.w3.org/2000/svg" width="40" height="35.582" viewBox="0 0 40 35.582"><path fill="#6B9EF9" d="M6.211 11.546c1.875-1.457 3.429-.45 5.504 1.947.233.27.547-.046.725-.201l3.049-2.734c.133-.118.295-.336.082-.584-.212-.248-.992-1.256-1.492-1.907-3.63-4.749 9.934-7.971 7.85-8.024-1.06-.025-5.314-.076-5.948-.008-2.578.276-5.813 2.681-7.441 3.801-2.129 1.464-2.926 2.313-3.06 2.431-.602.53-.097 1.742-1.188 2.699-1.155 1.013-1.874.251-2.542.834-.333.293-1.259.986-1.526 1.221-.267.233-.314.63-.042.944 0 0 2.538 2.805 2.751 3.052.212.25.784.457 1.14.144l1.423-1.249c.157-.134-.101-1.731.715-2.366zm11.465 1.036c-.241-.278-.538-.284-.798-.054l-2.881 2.508c-.225.202-.255.573-.053.806l16.659 18.953c.389.448 1.062.498 1.508.107l1.949-1.631c.445-.391.49-1.073.102-1.523l-16.486-19.166zm22.212-8.067c-.148-.994-.664-.781-.93-.363-.266.42-1.447 2.213-1.935 3.023-.482.805-1.669 2.391-3.882.826-2.305-1.633-1.506-2.767-1.102-3.535.4-.768 1.643-2.922 1.819-3.191.18-.27-.028-1.059-.745-.728-.715.329-5.065 2.06-5.672 4.534-.613 2.527.518 4.779-1.705 7.02l-2.696 2.812 2.71 3.147 3.323-3.152c.79-.799 2.479-1.569 4.011-1.224 3.279.742 5.066-.488 6.148-2.523.964-1.824.804-5.654.656-6.646zm-34.469 27.437c-.418.421-.418 1.104-.001 1.522l1.912 1.867c.417.422 1.08.242 1.498-.177l9.856-9.691-3.021-3.436-10.244 9.915z"/></svg>