<svg xmlns="http://www.w3.org/2000/svg" width="32" height="27.255" viewBox="0 0 32 27.255"><path fill="#333857" d="M28.073 18.783c-.522-.058-1.043.002-1.529.17-.259.079-.505.182-.737.305-.213.075-.489.138-.774.106-.415-.049-.958-.459-1.114-.584l-5.301-5.298 5.182-5.179c.158-.126.7-.537 1.115-.584.596-.068 1.158.277 1.158.277l.006-.015c.701.328 1.49.437 2.273.261 1.342-.302 2.764-1.433 3.14-2.762l.077-.293-3.535.933s-1.075-.636-1.402-1.93c-.33-1.292.312-2.099.312-2.099l3.488-.925c-.945-.954-2.631-1.366-3.916-1.077-.766.172-1.419.592-1.909 1.168l-.004-.002s-.483.504-.732 1.018c-.175.362-.346 1.137-1.11 1.9l-6.727 6.725-6.73-6.725c-.764-.764-.934-1.538-1.107-1.9-.253-.512-.738-1.016-.738-1.016l-.003.002c-.489-.576-1.142-.996-1.909-1.168-1.285-.289-2.969.123-3.913 1.077l3.485.925s.644.807.314 2.099c-.329 1.294-1.402 1.93-1.402 1.93l-3.536-.934.077.293c.376 1.329 1.8 2.46 3.139 2.762.787.176 1.575.067 2.276-.261l.003.015s.564-.346 1.159-.277c.414.047.957.458 1.115.584l5.185 5.179-5.303 5.297c-.155.125-.7.535-1.114.584-.415.047-.834-.085-1.055-.17-.535-.245-1.127-.386-1.754-.386-2.332.001-4.223 1.891-4.223 4.222 0 2.334 1.891 4.225 4.223 4.225 1.516 0 2.844-.806 3.59-2.007.094-.137.189-.289.264-.441.176-.358.346-1.134 1.109-1.899l6.848-6.843 6.845 6.843c.444.445.685.889.845 1.257.508 1.762 2.131 3.05 4.055 3.05 2.332 0 4.223-1.891 4.223-4.223-.002-2.232-1.734-4.055-3.929-4.209m-20.315-13.014c-.427.855-1.131 1.511-1.851 1.886.81-.609 1.489-1.631 1.81-2.858.25-.962.232-1.888.004-2.646.107.224.201.471.273.729.338.797.6 1.37.966 1.756l6.698 6.635-.486.486-7.117-6.785-.13.42 6.958 6.653-.274.276-6.851-6.552zm-1.67 17.969l-.047.724-.65.324-.316.476-.57-.035-.61.303-.569-.376-.646-.043-.288-.575-.497-.332.037-.6-.32-.64.396-.596.035-.56.501-.248.396-.596.711.045.541-.269.503.333.639.039.284.575.573.379-.043.687.254.51-.314.475zm1.521-1.999c.364.886.395 1.847.199 2.635.076-1.009-.242-2.195-.957-3.243-.56-.823-1.266-1.42-1.986-1.748.236.067.484.16.73.276.821.27 1.881.466 2.67-.326l14.839-14.696c.368-.386.629-.959.965-1.756.074-.259.169-.506.275-.729-.23.758-.245 1.684.004 2.646.318 1.228 1 2.249 1.81 2.858-.722-.375-1.423-1.031-1.851-1.887l-16.698 15.97zm16.646 2.635c-.193-.788-.165-1.749.198-2.635l-6.939-6.639.187-.206.081-.079 6.848 6.55c.067-.127.145-.252.229-.374l-6.766-6.449c.199-.161.376-.278.515-.351l5.19 5.142c.793.792 1.85.596 2.671.326.246-.116.494-.209.731-.276-.722.328-1.429.925-1.988 1.748-.713 1.048-1.035 2.234-.957 3.243m5.786-.718l-.046.724-.648.324-.318.476-.569-.036-.61.305-.57-.379-.645-.04-.285-.578-.501-.333.038-.597-.319-.642.397-.595.034-.558.5-.251.396-.595.712.044.541-.269.504.334.638.041.286.572.57.379-.041.687.253.511-.317.476z"/></svg>