<svg xmlns="http://www.w3.org/2000/svg" width="36" height="35.625" viewBox="0 0 36 35.625"><g fill="#6B9EF9"><ellipse cx="18" cy="15.898" rx="2.619" ry="3.384"/><path d="M18.001 27.979l-16.777-12.795h-1.222v20.441h35.998v-20.441h-1.223zM10.855 10.959h-2.271v2.271h.001c1.254 0 2.27-1.017 2.27-2.271zM27.416 13.23v-2.271h-2.271c0 1.254 1.016 2.271 2.271 2.271zM18 0l-17.998 9.471h-.002.002v1.997h1.232l6.821 5.202v-.002l8.671 6.612h-.002l1.276.974 1.276-.974h-.002l8.669-6.61 6.823-5.202h1.234v-1.997l-18-9.471zm9.944 14.238l-9.336 7.127h-1.216l-9.337-7.113v-3.822h19.889v3.808z"/></g></svg>