<svg xmlns="http://www.w3.org/2000/svg" width="32" height="31.002" viewBox="0 0 32 31.002"><path fill="#333857" d="M30.354 18.728c.422.407.57 1.021.388 1.579-2.03 6.202-7.872 10.695-14.74 10.695-5.325 0-10.196-2.689-13.035-7.111-.122-.19-.352-.281-.569-.22l-1.745.497c-.379.108-.732-.234-.637-.617l1.51-6.001.297-1.188c.096-.383.569-.518.853-.243l1.478 1.431 3.849 3.726c.283.274.163.752-.216.86l-1.928.55c2.31 3.268 6.063 5.244 10.145 5.244 5.508 0 10.19-3.6 11.813-8.571.354-1.083 1.693-1.449 2.513-.657l.024.026zm-1.115-11.297c-2.81-4.609-7.788-7.431-13.237-7.431-6.873 0-12.71 4.494-14.74 10.696-.182.558-.034 1.171.388 1.579l.026.025c.819.792 2.159.427 2.513-.657 1.623-4.971 6.301-8.571 11.813-8.571 4.076 0 7.83 1.972 10.14 5.239l-1.928.55c-.379.108-.499.587-.216.86l3.854 3.731 1.478 1.431c.283.274.758.139.854-.244l.296-1.187 1.506-6.007c.096-.383-.259-.726-.638-.617l-2.109.603zm-13.491 6.935l-.867 1.316v.016h1.116v-1.284c0-.313.048-.643.048-.643h-.016s-.121.354-.281.595zm8.549 1.133c0 4.582-3.715 8.297-8.297 8.297s-8.297-3.715-8.297-8.297 3.715-8.297 8.297-8.297 8.297 3.715 8.297 8.297zm-11.442 1.548h-2.44c.04-.738 2.353-1.084 2.353-2.874 0-1.22-1.02-1.758-1.959-1.758-1.493 0-2.023 1.236-2.023 1.236l1.044.698s.305-.61.851-.61c.298 0 .618.169.618.57 0 .826-2.48 1.204-2.48 3.323 0 .192.024.394.064.618h3.974v-1.203zm5.213-1.349h-.683v-3.187h-1.718l-2.216 3.5v.851h2.545v1.389h1.389v-1.389h.683v-1.164zm5.039 2.553v-2.682c0-1.164-.65-1.549-1.485-1.549-.546 0-1.027.249-1.26.658h-.017l.017-.354v-1.813h-1.389v5.739h1.389v-1.83c0-.192.016-.37.072-.53.12-.361.401-.609.826-.609.306 0 .458.16.458.546v2.424h1.389z"/></svg>