<svg xmlns="http://www.w3.org/2000/svg" width="32" height="25.839" viewBox="0 0 32 25.839"><path fill="#486DB9" d="M29.885 6.23h-6.799v-3.554c0-1.478-1.199-2.676-2.677-2.676h-17.733c-1.479 0-2.676 1.198-2.676 2.676v13.922c0 1.479 1.197 2.676 2.676 2.676h2.294v4.527c0 .559.453 1.011 1.011 1.011.286 0 .543-.118.727-.31h.002l5.214-5.229h1.833v.074c0 1.168.947 2.115 2.115 2.115h6.704l4.122 4.132h.002c.145.148.348.244.574.244.44 0 .797-.358.797-.798v-3.578h1.814c1.168 0 2.115-.947 2.115-2.115v-11.001c0-1.168-.947-2.116-2.115-2.116m-8.711 10.259c0 .481-.393.874-.874.874h-8.728c-.262.002-.498.11-.669.281l-.007.003-4.006 4.01v-3.383c-.025-.503-.439-.906-.948-.911h-3.157c-.482 0-.875-.393-.875-.874v-13.691c0-.481.393-.872.875-.872h17.515c.481 0 .874.391.874.872v13.691zm7.198 1.966h-6.037c.465-.48.751-1.138.751-1.857v-.064h5.286c.53 0 .96.431.96.961s-.43.96-.96.96m0-4.096h-5.286v-1.923h5.286c.53 0 .96.431.96.962 0 .531-.43.961-.96.961m0-4.097h-5.286v-1.921h5.286c.53 0 .96.432.96.961 0 .531-.43.96-.96.96m-10.194-5.924c.531 0 .96.43.96.96 0 .531-.429.96-.96.96h-13.774c-.532 0-.963-.429-.963-.96 0-.53.431-.96.963-.96h13.774m0 4.182c.531 0 .96.431.96.961s-.429.96-.96.96h-13.774c-.532 0-.963-.43-.963-.96s.431-.961.963-.961h13.774m0 4.181c.531 0 .96.431.96.96 0 .531-.429.962-.96.962h-13.774c-.532 0-.963-.431-.963-.962 0-.529.431-.96.963-.96h13.774"/></svg>