<svg xmlns="http://www.w3.org/2000/svg" width="36" height="39.059" viewBox="0 0 36 39.059"><g fill="#6B9EF9"><path d="M30.229 28.32v1.468c1.214 0 2.201-.987 2.201-2.201v-2.739c0-1.214-.987-2.201-2.201-2.201h-23.284c-1.213 0-2.201.987-2.201 2.201v2.739c0 1.214.988 2.201 2.201 2.201v-1.468c-.404 0-.733-.329-.733-.733v-2.739c0-.405.329-.733.733-.733h23.283c.404 0 .733.328.733.733v2.739c.001.404-.328.733-.732.733zM33.506 0h-31.012c-1.375 0-2.494 1.118-2.494 2.494v31.011c0 1.376 1.119 2.495 2.494 2.495h4.378v-2.055h-4.378c-.242 0-.439-.197-.439-.439v-31.011c0-.244.197-.441.439-.441h31.012c.242 0 .439.197.439.441v31.01c0 .243-.197.441-.439.441h-3.204v2.054h3.204c1.375 0 2.494-1.12 2.494-2.495v-31.01c0-1.377-1.119-2.495-2.494-2.495zM4.5 5.282h22.207v13.207h-22.207zM28.174 5.282h3.521v3.521h-3.521zM28.174 10.125h3.521v3.521h-3.521zM28.174 14.968h3.521v3.521h-3.521zM7.459 34.654h22.256v-8.927h-22.256v8.927zm1.246-6.749c.814-.131 1.467-.603 1.695-1.215h16.538c.212.57.794 1.018 1.531 1.183v4.636c-.736.165-1.317.613-1.53 1.183h-16.539c-.229-.612-.88-1.087-1.695-1.217v-4.57z"/><ellipse cx="18.588" cy="30.191" rx="3.072" ry="3.035"/><path d="M26.939 35.854h-16.539c-.066-.179-.173-.344-.305-.493h-2.636v1.457h22.256v-1.458h-2.469c-.133.15-.24.315-.307.494zM26.939 38.096h-16.539c-.066-.179-.173-.344-.305-.493h-2.636v1.456h22.256v-1.456h-2.469c-.133.149-.24.314-.307.493z"/></g></svg>